<svg xmlns="http://www.w3.org/2000/svg" viewBox="0 0 64 64"><g data-name="cloud-data-storage"><path fill="#2488ff" d="M54.6,25.16A8,8,0,0,1,53,41H12A9,9,0,0,1,8.54,23.7,6.922,6.922,0,0,1,8,21a7,7,0,0,1,7-7,6.564,6.564,0,0,1,1.73.22,16,16,0,0,1,31.16,2.89A5.8,5.8,0,0,1,49,17a6.005,6.005,0,0,1,5.6,8.16Z"/><circle cx="12" cy="53" r="2" fill="#d80027"/><circle cx="52" cy="53" r="2" fill="#64c37d"/><circle cx="32" cy="59" r="2" fill="#ffda44"/><rect width="26" height="4" x="19" y="33" fill="#898890"/><rect width="32" height="8" x="16" y="37" fill="#e0e0e2"/><rect width="32" height="8" x="16" y="25" fill="#e0e0e2"/><path d="M48,46a1,1,0,0,0,1-1V42h4a9,9,0,0,0,2.849-17.539A7.1,7.1,0,0,0,56,23a6.963,6.963,0,0,0-7.262-6.994,17,17,0,0,0-32.672-2.937A8.016,8.016,0,0,0,7,21a7.991,7.991,0,0,0,.3,2.181A10,10,0,0,0,12,42h3v3a1,1,0,0,0,1,1h8v6H14.816a3,3,0,1,0,0,2H25a1,1,0,0,0,1-1V46h5V56.184a3,3,0,1,0,2,0V46h5v7a1,1,0,0,0,1,1H49.184a3,3,0,1,0,0-2H40V46ZM12,54a1,1,0,1,1,1-1A1,1,0,0,1,12,54Zm20,6a1,1,0,1,1,1-1A1,1,0,0,1,32,60Zm20-8a1,1,0,1,1-1,1A1,1,0,0,1,52,52ZM15,37v3H12A7.995,7.995,0,0,1,8.924,24.624a1,1,0,0,0,.538-1.312A5.909,5.909,0,0,1,9,21a6.006,6.006,0,0,1,6-6,5.608,5.608,0,0,1,1.469.185,1,1,0,0,0,1.216-.667A15,15,0,0,1,46.9,17.227a1,1,0,0,0,1.185.865A4.813,4.813,0,0,1,49,18a5.006,5.006,0,0,1,5,5,4.933,4.933,0,0,1-.332,1.8,1,1,0,0,0,.732,1.343A7,7,0,0,1,53,40H49V37a1,1,0,0,0-1-1H46V34h2a1,1,0,0,0,1-1V25a1,1,0,0,0-1-1H16a1,1,0,0,0-1,1v8a1,1,0,0,0,1,1h2v2H16A1,1,0,0,0,15,37Zm2-5V26H47v6Zm3,2H44v2H20Zm-3,4H47v6H17Z"/><circle cx="21" cy="29" r="2"/><circle cx="21" cy="41" r="2"/></g></svg>