<svg xmlns="http://www.w3.org/2000/svg" viewBox="0 0 64 64"><g data-name="laptop-data-storage"><path fill="#9bfbff" d="M59,11H5a2.006,2.006,0,0,0-2,2V39H61V13A2.006,2.006,0,0,0,59,11Z"/><path fill="#46f8ff" d="M3,36.442V39H61V19.518C55.608,25.786,41.027,35.933,3,36.442Z"/><path fill="#e0e0e2" d="M61,39v4a2.006,2.006,0,0,1-2,2H5a2.006,2.006,0,0,1-2-2V39Z"/><polygon fill="#57565c" points="46 53 46 59 18 59 18 53 28 53 36 53 46 53"/><rect width="8" height="8" x="28" y="45" fill="#acabb1"/><rect width="26" height="4" x="19" y="13" fill="#898890"/><rect width="32" height="8" x="16" y="17" fill="#d8d7da"/><rect width="32" height="8" x="16" y="5" fill="#e0e0e2"/><circle cx="21" cy="9" r="2" fill="#ffda44"/><circle cx="21" cy="21" r="2" fill="#d80027"/><rect width="2" height="8" x="31" y="25" fill="#e0e0e2"/><path fill="#e0e0e2" d="M25 31H13V29H24V25h2v5A1 1 0 0 1 25 31zM51 31H39a1 1 0 0 1-1-1V25h2v4H51z"/><rect width="34" height="2" x="15" y="58" fill="#2d2d30"/><rect width="2" height="2" x="56" y="41" fill="#d80027"/><circle cx="12" cy="30" r="3" fill="#ffda44"/><circle cx="52" cy="30" r="3" fill="#ffda44"/><circle cx="32" cy="34" r="3" fill="#ff9811"/><rect width="26" height="1" x="19" y="13" fill="#787680"/><rect width="8" height="2" x="28" y="45" fill="#898890"/><rect width="7" height="2" x="25" y="6" fill="#c6c5ca" rx="1"/><rect width="7" height="2" x="25" y="18" fill="#c6c5ca" rx="1"/></g></svg>