<svg xmlns="http://www.w3.org/2000/svg" viewBox="0 0 24 24"><path fill="#303C42" d="M1 7h20v3H1z"/><path d="M1 7h20v3H1z" opacity=".1"/><path fill="#303C42" d="M0 3v4a1 1 0 0 0 1 1h20a1 1 0 0 0 1-1V3a1 1 0 0 0-1-1H1a1 1 0 0 0-1 1z"/><path d="M21 7.75H1a1 1 0 0 1-1-1V7a1 1 0 0 0 1 1h20a1 1 0 0 0 1-1v-.25a1 1 0 0 1-1 1z" opacity=".2"/><path fill="#FFF" d="M21 2H1a1 1 0 0 0-1 1v.25a1 1 0 0 1 1-1h20a1 1 0 0 1 1 1V3a1 1 0 0 0-1-1z" opacity=".1"/><circle cx="18.5" cy="5" r=".5" fill="#69B342"/><circle cx="16.5" cy="5" r=".5" fill="#69B342"/><circle cx="14.5" cy="5" r=".5" fill="#69B342"/><circle cx="4" cy="5" r="1" fill="#C6CDD1"/><linearGradient id="a" x1="3.368" x2="4.487" y1="4.368" y2="5.487" gradientUnits="userSpaceOnUse"><stop offset="0" stop-opacity=".1"/><stop offset="1" stop-opacity="0"/></linearGradient><circle cx="4" cy="5" r="1" fill="url(#a)"/><path fill="#303C42" d="M0 10v4a1 1 0 0 0 1 1h20a1 1 0 0 0 1-1v-4a1 1 0 0 0-1-1H1a1 1 0 0 0-1 1z"/><path d="M21 14.75H1a1 1 0 0 1-1-1V14a1 1 0 0 0 1 1h20a1 1 0 0 0 1-1v-.25a1 1 0 0 1-1 1z" opacity=".2"/><path fill="#FFF" d="M21 9H1a1 1 0 0 0-1 1v.25a1 1 0 0 1 1-1h20a1 1 0 0 1 1 1V10a1 1 0 0 0-1-1z" opacity=".1"/><circle cx="18.5" cy="12" r=".5" fill="#69B342"/><circle cx="16.5" cy="12" r=".5" fill="#69B342"/><circle cx="14.5" cy="12" r=".5" fill="#69B342"/><circle cx="4" cy="12" r="1" fill="#C6CDD1"/><linearGradient id="b" x1="3.368" x2="4.487" y1="11.368" y2="12.487" gradientUnits="userSpaceOnUse"><stop offset="0" stop-opacity=".1"/><stop offset="1" stop-opacity="0"/></linearGradient><circle cx="4" cy="12" r="1" fill="url(#b)"/><path fill="#0097CF" d="M23.5 14h-4.793l-1-1H13.5a.5.5 0 0 0-.5.5v8a.5.5 0 0 0 .5.5h10a.5.5 0 0 0 .5-.5v-7a.5.5 0 0 0-.5-.5z"/><path fill="#FFF" d="M23.5 14h-4.793l-1-1H13.5a.5.5 0 0 0-.5.5v.25a.5.5 0 0 1 .5-.5h4.207l1 1H23.5a.5.5 0 0 1 .5.5v-.25a.5.5 0 0 0-.5-.5z" opacity=".2"/><path d="M23.5 21.75h-10a.5.5 0 0 1-.5-.5v.25a.5.5 0 0 0 .5.5h10a.5.5 0 0 0 .5-.5v-.25a.5.5 0 0 1-.5.5z" opacity=".1"/><linearGradient id="c" x1="-.441" x2="26.486" y1="3.724" y2="16.281" gradientUnits="userSpaceOnUse"><stop offset="0" stop-color="#FFF" stop-opacity=".2"/><stop offset="1" stop-color="#FFF" stop-opacity="0"/></linearGradient><path fill="url(#c)" d="M23.5 14H22v-4a1 1 0 0 0-1-1V8a1 1 0 0 0 1-1V3a1 1 0 0 0-1-1H1a1 1 0 0 0-1 1v4a1 1 0 0 0 1 1v1a1 1 0 0 0-1 1v4a1 1 0 0 0 1 1h12v6.5a.5.5 0 0 0 .5.5h10a.5.5 0 0 0 .5-.5v-7a.5.5 0 0 0-.5-.5z"/></svg>